# xmcd CD database file
#
# Track frame offsets:
#	150
#	16604
#	34867
#	52522
#	71247
#	88975
#	108779
#	126061
#	144248
#	162162
#
# Disc length: 2710 seconds
#
# Revision: 0
# Processed by: cddbd v1.5.2PL0 Copyright (c) Steve Scherf et al.
# Submitted via: CDex 1.79
#
DISCID=750a940a
DTITLE=Clint Martin - Last Of A Dying Breed
DYEAR=2011
DGENRE=Country
TTITLE0=I Love Being Me
TTITLE1=In The Doghouse Again
TTITLE2=Storm Of Her Memory
TTITLE3=Last Of A Dying Breed ( Grandpa's Song)
TTITLE4=Gone
TTITLE5=My Ship Ran Aground
TTITLE6=Keepin' It Country
TTITLE7=Red Rio Grande
TTITLE8=The Long Ride
TTITLE9=Living Life's Overdues
EXTD=YEAR: 2011
EXTT0=
EXTT1=
EXTT2=
EXTT3=
EXTT4=
EXTT5=
EXTT6=
EXTT7=
EXTT8=
EXTT9=
PLAYORDER=
